<svg width="20" height="20" viewBox="0 0 20 20" fill="none" xmlns="http://www.w3.org/2000/svg">
<path d="M20 2.14286C20 3.32632 19.0406 4.28571 17.8571 4.28571C16.6737 4.28571 15.7143 3.32632 15.7143 2.14286C15.7143 0.95939 16.6737 0 17.8571 0C19.0406 0 20 0.95939 20 2.14286Z" fill="#17171B"/>
<path d="M2.14286 5.71429C3.32632 5.71429 4.28571 4.7549 4.28571 3.57143C4.28571 2.38796 3.32632 1.42857 2.14286 1.42857C0.95939 1.42857 0 2.38796 0 3.57143C0 4.7549 0.95939 5.71429 2.14286 5.71429Z" fill="#17171B"/>
<path d="M9.28571 5.71429C10.4692 5.71429 11.4286 4.7549 11.4286 3.57143C11.4286 2.38796 10.4692 1.42857 9.28571 1.42857C8.10225 1.42857 7.14286 2.38796 7.14286 3.57143C7.14286 4.7549 8.10225 5.71429 9.28571 5.71429Z" fill="#17171B"/>
<path d="M2.14286 12.8571C3.32632 12.8571 4.28571 11.8978 4.28571 10.7143C4.28571 9.53082 3.32632 8.57143 2.14286 8.57143C0.95939 8.57143 0 9.53082 0 10.7143C0 11.8978 0.95939 12.8571 2.14286 12.8571Z" fill="#17171B"/>
<path d="M11.4286 10.7143C11.4286 11.8978 10.4692 12.8571 9.28571 12.8571C8.10225 12.8571 7.14286 11.8978 7.14286 10.7143C7.14286 9.53082 8.10225 8.57143 9.28571 8.57143C10.4692 8.57143 11.4286 9.53082 11.4286 10.7143Z" fill="#17171B"/>
<path d="M16.4286 12.8571C17.612 12.8571 18.5714 11.8978 18.5714 10.7143C18.5714 9.53082 17.612 8.57143 16.4286 8.57143C15.2451 8.57143 14.2857 9.53082 14.2857 10.7143C14.2857 11.8978 15.2451 12.8571 16.4286 12.8571Z" fill="#17171B"/>
<path d="M4.28571 17.8571C4.28571 19.0406 3.32632 20 2.14286 20C0.95939 20 0 19.0406 0 17.8571C0 16.6737 0.95939 15.7143 2.14286 15.7143C3.32632 15.7143 4.28571 16.6737 4.28571 17.8571Z" fill="#17171B"/>
<path d="M9.28571 20C10.4692 20 11.4286 19.0406 11.4286 17.8571C11.4286 16.6737 10.4692 15.7143 9.28571 15.7143C8.10225 15.7143 7.14286 16.6737 7.14286 17.8571C7.14286 19.0406 8.10225 20 9.28571 20Z" fill="#17171B"/>
<path d="M18.5714 17.8571C18.5714 19.0406 17.612 20 16.4286 20C15.2451 20 14.2857 19.0406 14.2857 17.8571C14.2857 16.6737 15.2451 15.7143 16.4286 15.7143C17.612 15.7143 18.5714 16.6737 18.5714 17.8571Z" fill="#17171B"/>
</svg>
