<svg width="25" height="25" viewBox="0 0 25 25" fill="none" xmlns="http://www.w3.org/2000/svg">
<g clip-path="url(#clip0_63_5673)">
<path fill-rule="evenodd" clip-rule="evenodd" d="M20.61 16.9204C20.61 21.3827 16.979 25 12.4999 25C8.02087 25 4.38989 21.3827 4.38989 16.9204C4.38989 12.5806 12.0612 0.661548 12.482 0.011124C12.4916 -0.0037081 12.5083 -0.00370797 12.5179 0.0111242C12.9386 0.661548 20.61 12.5806 20.61 16.9204ZM11.148 22.4097C7.03259 21.5093 7.73682 16.9505 7.73682 16.9505C7.73682 16.9505 8.8606 19.7024 11.5877 20.5939C14.3148 21.4853 17.6105 20.1779 17.6105 20.1779C17.6105 20.1779 15.2634 23.3102 11.148 22.4097Z" fill="#4A90DA"/>
</g>
<defs>
<clipPath id="clip0_63_5673">
<rect width="25" height="25" fill="white"/>
</clipPath>
</defs>
</svg>
